<svg width="181" height="174" viewBox="0 0 181 174" fill="none" xmlns="http://www.w3.org/2000/svg">
<rect x="0.908203" y="0.617188" width="180.071" height="173.068" rx="86.5341" fill="#C4C4C4"/>
<mask id="mask0_487_7623" style="mask-type:alpha" maskUnits="userSpaceOnUse" x="0" y="0" width="181" height="174">
<rect x="0.908203" y="0.617188" width="180.071" height="173.068" rx="86.5341" fill="#C4C4C4"/>
</mask>
<g mask="url(#mask0_487_7623)">
<path d="M75.5682 27.7602C80.7389 23.5879 85.7845 19.2457 91.4186 15.7528C106.526 6.36697 124.024 8.15404 139.418 16.0704C147.215 20.0728 154.254 25.3676 160.954 30.9873C167.53 36.5036 173.833 41.9239 177.864 49.6777C192.56 77.9904 169.339 107.027 147.009 122.394C145.347 123.539 143.648 124.639 141.927 125.702C116.735 141.188 83.8354 151.113 54.4883 143.499C48.8174 142.03 43.3305 139.866 38.2186 136.993C26.9064 130.643 17.5727 121.198 10.5779 110.298C5.84115 102.928 1.85465 94.7313 1.42069 85.9731C0.913185 75.7159 5.80437 64.0851 14.7115 58.5688C20.6692 54.8765 27.9802 53.9682 34.7323 52.0777C48.6335 48.1787 62.2259 38.2907 73.4499 29.4513C74.1633 28.8827 74.8621 28.3214 75.5682 27.7602Z" fill="#EBF0FF"/>
<path d="M55.8578 103.431H43.6261C43.0304 103.431 42.5449 103.889 42.5449 104.442V109.501C42.5449 110.055 43.0304 110.512 43.6261 110.512H44.7C44.5308 110.335 44.4352 110.099 44.4352 109.848V105.58C44.4352 105.026 44.9206 104.568 45.5164 104.568H54.2102C54.806 104.568 55.2914 105.026 55.2914 105.58V109.848C55.2914 110.099 55.1885 110.335 55.0267 110.512H55.8578C56.4536 110.512 56.939 110.055 56.939 109.501V104.442C56.939 103.889 56.4536 103.431 55.8578 103.431Z" fill="#20307B"/>
<path d="M60.7779 124.381H38.6462C37.7416 124.381 36.9766 123.687 36.8589 122.764L35.9469 115.416C35.8071 114.308 36.6456 113.326 37.7342 113.326H61.5649C62.6388 113.326 63.4699 114.286 63.3523 115.379L62.5652 122.727C62.4623 123.672 61.6973 124.381 60.7779 124.381Z" fill="#20307B"/>
<path d="M63.9847 114.589H35.0273V109.346C35.0273 108.592 35.6378 107.979 36.3881 107.979H62.624C63.3742 107.979 63.9847 108.592 63.9847 109.346V114.589Z" fill="#FEBD57"/>
<path d="M65.0592 113.917L65.0003 113.658H59.837V112.551H64.7429L64.5222 111.613C64.5002 111.524 64.4634 111.436 64.4119 111.362C64.3163 111.214 64.1618 111.111 63.9853 111.052C63.9044 111.029 63.8235 111.015 63.7352 111.015H35.4619C35.3074 111.015 35.153 111.059 35.028 111.133C34.9323 111.192 34.8441 111.266 34.7852 111.362C34.7264 111.443 34.6896 111.532 34.6675 111.635L34.4837 112.551H38.2422V113.658H34.263L34.2042 113.939C34.1086 114.404 34.491 114.832 34.9985 114.832H38.2422V116.014C38.2422 116.745 38.8747 117.336 39.647 117.336H41.9418C42.7215 117.336 43.3467 116.745 43.3467 116.014V114.832H54.7104V116.014C54.7104 116.745 55.343 117.336 56.1153 117.336H58.4174C59.1971 117.336 59.8223 116.745 59.8223 116.014V114.832H64.2648C64.787 114.84 65.1695 114.389 65.0592 113.917ZM43.3614 112.551H54.7251V113.658H43.3614V112.551Z" fill="#1A4EA2"/>
<path d="M61.5292 107.987H38.9414V108.999H61.5292V107.987Z" fill="#1A4EA2"/>
<path d="M190.441 -1.41602H0.111328V89.976H190.441V-1.41602Z" fill="#B3C7FF"/>
<path opacity="0.47" d="M203.711 108.549L-6 91.3354V-0.0566406H201.085L203.711 108.549Z" fill="#B3C7FF"/>
<path d="M48.267 89.9765L47.5977 6.58203" stroke="#8AA7F9" stroke-width="11.1062" stroke-miterlimit="10"/>
<path d="M104.527 89.9765L103.857 6.58203" stroke="#8AA7F9" stroke-width="11.1062" stroke-miterlimit="10"/>
<path d="M160.412 89.9765L159.742 6.58203" stroke="#8AA7F9" stroke-width="11.1062" stroke-miterlimit="10"/>
<path d="M43.7059 -2.11719H-4.5293V86.1216H43.7059V-2.11719Z" fill="#EBF0FF"/>
<path d="M99.7235 -2.11719H51.4883V86.1216H99.7235V-2.11719Z" fill="#EBF0FF"/>
<path d="M155.983 -2.11719H107.748V86.1216H155.983V-2.11719Z" fill="#EBF0FF"/>
<path d="M212.001 -2.11719H163.766V86.1216H212.001V-2.11719Z" fill="#EBF0FF"/>
<path d="M37.8069 72.1713C39.0012 72.1713 39.9694 71.1992 39.9694 70.0002C39.9694 68.8011 39.0012 67.8291 37.8069 67.8291C36.6127 67.8291 35.6445 68.8011 35.6445 70.0002C35.6445 71.1992 36.6127 72.1713 37.8069 72.1713Z" fill="#B3C7FF"/>
<path d="M38.3734 71.7728C39.5676 71.7728 40.5358 70.8008 40.5358 69.6017C40.5358 68.4027 39.5676 67.4307 38.3734 67.4307C37.1791 67.4307 36.2109 68.4027 36.2109 69.6017C36.2109 70.8008 37.1791 71.7728 38.3734 71.7728Z" fill="white"/>
<path d="M56.7835 72.1713C57.9778 72.1713 58.9459 71.1992 58.9459 70.0002C58.9459 68.8011 57.9778 67.8291 56.7835 67.8291C55.5892 67.8291 54.6211 68.8011 54.6211 70.0002C54.6211 71.1992 55.5892 72.1713 56.7835 72.1713Z" fill="#B3C7FF"/>
<path d="M57.3577 71.7728C58.552 71.7728 59.5202 70.8008 59.5202 69.6017C59.5202 68.4027 58.552 67.4307 57.3577 67.4307C56.1635 67.4307 55.1953 68.4027 55.1953 69.6017C55.1953 70.8008 56.1635 71.7728 57.3577 71.7728Z" fill="white"/>
<path d="M149.297 72.1713C150.491 72.1713 151.46 71.1992 151.46 70.0002C151.46 68.8011 150.491 67.8291 149.297 67.8291C148.103 67.8291 147.135 68.8011 147.135 70.0002C147.135 71.1992 148.103 72.1713 149.297 72.1713Z" fill="#B3C7FF"/>
<path d="M149.871 71.7728C151.066 71.7728 152.034 70.8008 152.034 69.6017C152.034 68.4027 151.066 67.4307 149.871 67.4307C148.677 67.4307 147.709 68.4027 147.709 69.6017C147.709 70.8008 148.677 71.7728 149.871 71.7728Z" fill="white"/>
<path d="M168.282 72.1713C169.476 72.1713 170.444 71.1992 170.444 70.0002C170.444 68.8011 169.476 67.8291 168.282 67.8291C167.087 67.8291 166.119 68.8011 166.119 70.0002C166.119 71.1992 167.087 72.1713 168.282 72.1713Z" fill="#B3C7FF"/>
<path d="M168.848 71.7728C170.042 71.7728 171.01 70.8008 171.01 69.6017C171.01 68.4027 170.042 67.4307 168.848 67.4307C167.654 67.4307 166.686 68.4027 166.686 69.6017C166.686 70.8008 167.654 71.7728 168.848 71.7728Z" fill="white"/>
<g opacity="0.52">
<path opacity="0.52" d="M104.925 39.9972L104.844 4.99414" stroke="#12133F" stroke-width="8.9454" stroke-miterlimit="10"/>
<g opacity="0.52">
<g opacity="0.52">
<path opacity="0.52" d="M110.514 52.1812C110.514 54.2415 109.447 56.0508 107.836 57.0846C106.939 57.6606 105.865 57.9929 104.718 57.9929C101.518 57.9929 98.9219 55.3862 98.9219 52.1739C98.9219 51.9154 98.9366 51.6569 98.9734 51.4058C98.9807 51.3689 98.9807 51.332 98.9881 51.3025C98.9881 51.2951 98.9881 51.2877 98.9881 51.2803C99.0175 51.0809 99.0616 50.8815 99.1131 50.6822C99.1205 50.6452 99.1352 50.6157 99.1425 50.5788C99.1499 50.5566 99.1572 50.5271 99.1646 50.5049C99.1867 50.4311 99.2087 50.3572 99.2382 50.2834C99.2529 50.2538 99.2602 50.2169 99.2749 50.1874L99.4735 49.7148C99.4882 49.6779 99.5029 49.6483 99.525 49.6114L99.7971 49.124C99.8119 49.0945 99.8339 49.0649 99.8486 49.0354L100.04 48.7548C100.864 47.5068 103.011 46.0889 103.011 45.2471V44.2797C103.011 44.2575 103.011 44.2354 103.019 44.2206C103.048 44.0582 103.188 43.9326 103.364 43.9326H106.078C106.27 43.9326 106.424 44.0877 106.424 44.2797V45.2471C106.424 45.668 106.961 46.2366 107.601 46.8495C108.241 47.4625 108.984 48.1271 109.396 48.7548C109.432 48.8065 109.477 48.8655 109.513 48.9246C109.528 48.9468 109.543 48.9689 109.557 48.9985C109.602 49.0649 109.638 49.1314 109.682 49.1979C109.697 49.22 109.712 49.2495 109.727 49.2717C109.749 49.3012 109.763 49.3382 109.785 49.3751C109.8 49.4046 109.815 49.4268 109.83 49.4563C109.859 49.5154 109.896 49.5745 109.925 49.6409C109.999 49.796 110.065 49.9511 110.131 50.1135C110.161 50.1948 110.19 50.2834 110.219 50.3646C110.286 50.5566 110.337 50.756 110.381 50.9554C110.396 51.0292 110.411 51.1031 110.425 51.1695C110.462 51.3911 110.492 51.6126 110.506 51.8415C110.514 51.9449 110.514 52.0631 110.514 52.1812Z" fill="#FEBD57"/>
</g>
<g opacity="0.52">
<path opacity="0.52" d="M108.19 50.7047C108.05 49.7816 107.285 48.8068 105.564 48.5631C105.52 48.0536 105.491 47.5293 105.469 47.0198C105.439 46.1779 105.446 45.3878 105.454 44.8265C105.461 44.3465 105.476 44.0364 105.476 44.0216L105.373 44.0142C105.373 44.0659 105.358 44.3613 105.351 44.8191C105.336 45.373 105.336 46.1558 105.358 46.9976C105.373 47.5071 105.402 48.0314 105.446 48.541C105.218 48.5114 104.976 48.4967 104.711 48.4967C104.453 48.4967 104.203 48.5114 103.975 48.541C104.02 48.0314 104.049 47.5071 104.064 46.9976C104.093 46.1558 104.086 45.373 104.071 44.8191C104.064 44.3761 104.049 44.0733 104.049 44.0142V44.0068L103.946 44.0142C103.946 44.0142 103.946 44.0216 103.946 44.029C103.946 44.1028 103.961 44.3908 103.968 44.8118C103.983 45.3656 103.983 46.1558 103.953 46.9976C103.939 47.5071 103.909 48.0314 103.858 48.541C102.137 48.7847 101.372 49.7594 101.232 50.6825C101.151 51.2216 101.335 51.7607 101.666 51.96C101.864 52.0782 102.115 52.1077 102.372 52.0339C102.784 51.9157 103.174 51.5613 103.409 51.0887C103.689 50.5422 103.85 49.6265 103.953 48.637C104.181 48.6074 104.431 48.5927 104.696 48.5927C104.961 48.5927 105.211 48.6074 105.439 48.637C105.535 49.6265 105.697 50.5348 105.983 51.0887C106.226 51.5613 106.616 51.9157 107.02 52.0339C107.278 52.1077 107.528 52.0856 107.727 51.96C108.087 51.7828 108.271 51.2437 108.19 50.7047ZM103.35 51.0591C103.122 51.5096 102.754 51.8419 102.372 51.9527C102.284 51.9822 102.195 51.9896 102.115 51.9896C101.982 51.9896 101.857 51.9527 101.747 51.8936C101.453 51.7163 101.283 51.2142 101.357 50.7194C101.489 49.8407 102.225 48.9102 103.872 48.6665C103.777 49.6413 103.615 50.5274 103.35 51.0591ZM107.705 51.8936C107.594 51.96 107.469 51.9896 107.337 51.9896C107.256 51.9896 107.168 51.9748 107.079 51.9527C106.697 51.8419 106.329 51.5096 106.101 51.0591C105.829 50.5348 105.674 49.6413 105.579 48.6739C107.226 48.9102 107.962 49.8407 108.094 50.7268C108.161 51.2142 107.999 51.7163 107.705 51.8936Z" stroke="white" stroke-width="3.6763" stroke-miterlimit="10"/>
</g>
<g opacity="0.43">
<g opacity="0.43">
<path opacity="0.43" d="M98.9434 51.8342C99.2596 49.4489 101.179 46.9825 104.725 46.9825C108.27 46.9825 110.116 49.5671 110.506 51.8342C110.44 50.6895 110.042 49.6262 109.41 48.7548C108.586 47.5068 106.431 46.0889 106.431 45.2471V44.2797C106.431 44.0877 106.277 43.9326 106.085 43.9326H105.151H104.298H103.364C103.173 43.9326 103.018 44.0877 103.018 44.2797V45.2471C103.018 46.0963 100.87 47.5068 100.039 48.7548C99.4067 49.6262 99.0096 50.6895 98.9434 51.8342Z" fill="#FF8C3E"/>
</g>
</g>
<g opacity="0.52">
<path opacity="0.52" d="M102.879 44.8339H106.564V41.7841C106.564 41.2893 106.483 40.802 106.328 40.381C106.034 39.5835 105.534 39.1035 104.99 39.1035H104.453C103.909 39.1035 103.408 39.5835 103.114 40.381C102.96 40.802 102.879 41.2893 102.879 41.7841V44.8339Z" fill="#991900"/>
</g>
<g opacity="0.52">
<g opacity="0.52">
<path opacity="0.52" d="M106.563 42.7734C106.556 42.7734 106.541 42.7734 106.534 42.7734L102.849 43.4381C102.724 43.4602 102.635 43.6596 102.65 43.8737C102.665 44.0953 102.782 44.2504 102.907 44.2282L106.592 43.5636C106.717 43.5414 106.806 43.3421 106.791 43.1279C106.776 42.9359 106.681 42.7808 106.563 42.7734Z" fill="#E03500"/>
</g>
</g>
<g opacity="0.52">
<g opacity="0.52">
<path opacity="0.52" d="M106.563 41.3779C106.556 41.3779 106.541 41.3779 106.534 41.3779L102.849 42.0425C102.724 42.0647 102.635 42.2641 102.65 42.4782C102.665 42.6998 102.782 42.8549 102.907 42.8327L106.592 42.1681C106.717 42.1459 106.806 41.9465 106.791 41.7324C106.776 41.5404 106.681 41.3853 106.563 41.3779Z" fill="#E03500"/>
</g>
</g>
<g opacity="0.52">
<g opacity="0.52">
<path opacity="0.52" d="M106.417 40.0049C106.409 40.0049 106.395 40.0049 106.387 40.0049L102.894 40.6326C102.769 40.6547 102.68 40.8541 102.695 41.0683C102.71 41.2898 102.827 41.4449 102.952 41.4227L106.446 40.795C106.571 40.7729 106.659 40.5735 106.645 40.3593C106.63 40.16 106.534 40.0049 106.417 40.0049Z" fill="#E03500"/>
</g>
</g>
</g>
</g>
<g opacity="0.52">
<path opacity="0.52" d="M63.6766 46.5626L63.5957 11.5596" stroke="#12133F" stroke-width="8.9454" stroke-miterlimit="10"/>
<g opacity="0.52">
<g opacity="0.52">
<path opacity="0.52" d="M69.2734 58.7398C69.2734 60.8002 68.2069 62.6094 66.5961 63.6433C65.6988 64.2193 64.6249 64.5516 63.4775 64.5516C60.278 64.5516 57.6816 61.9448 57.6816 58.7325C57.6816 58.474 57.6964 58.2155 57.7331 57.9645C57.7405 57.9275 57.7405 57.8906 57.7478 57.8611C57.7478 57.8537 57.7478 57.8463 57.7478 57.8389C57.7773 57.6395 57.8214 57.4402 57.8729 57.2408C57.8802 57.2038 57.8949 57.1743 57.9023 57.1374C57.9097 57.1152 57.917 57.0857 57.9244 57.0635C57.9464 56.9897 57.9685 56.9158 57.9979 56.842C58.0126 56.8125 58.02 56.7755 58.0347 56.746L58.2333 56.2734C58.248 56.2365 58.2627 56.2069 58.2848 56.17L58.5569 55.6826C58.5716 55.6531 58.5937 55.6235 58.6084 55.594L58.7996 55.3134C59.6234 54.0654 61.7711 52.6475 61.7711 51.8057V50.8383C61.7711 50.8161 61.7711 50.794 61.7785 50.7792C61.8079 50.6167 61.9476 50.4912 62.1242 50.4912H64.8382C65.0294 50.4912 65.1839 50.6463 65.1839 50.8383V51.8057C65.1839 52.2266 65.7208 52.7952 66.3607 53.4081C67.0006 54.0211 67.7435 54.6857 68.1554 55.3134C68.1921 55.3651 68.2363 55.4241 68.2731 55.4832C68.2878 55.5054 68.3025 55.5275 68.3172 55.5571C68.3613 55.6235 68.3981 55.69 68.4422 55.7565C68.4569 55.7786 68.4716 55.8081 68.4864 55.8303C68.5084 55.8598 68.5231 55.8968 68.5452 55.9337C68.5599 55.9632 68.5746 55.9854 68.5893 56.0149C68.6187 56.074 68.6555 56.1331 68.6849 56.1995C68.7585 56.3546 68.8247 56.5097 68.8909 56.6721C68.9203 56.7534 68.9497 56.842 68.9792 56.9232C69.0453 57.1152 69.0968 57.3146 69.141 57.514C69.1557 57.5878 69.1704 57.6617 69.1851 57.7282C69.2219 57.9497 69.2513 58.1712 69.266 58.4002C69.266 58.5109 69.2734 58.6217 69.2734 58.7398Z" fill="#FEBD57"/>
</g>
<g opacity="0.52">
<path opacity="0.52" d="M66.9418 57.2633C66.8021 56.3402 66.0371 55.3654 64.316 55.1217C64.2719 54.6122 64.2425 54.0879 64.2204 53.5784C64.191 52.7365 64.1983 51.9464 64.2057 51.3851C64.213 50.9051 64.2278 50.595 64.2278 50.5802L64.1248 50.5728C64.1248 50.6245 64.1101 50.9199 64.1027 51.3777C64.088 51.9316 64.088 52.7144 64.1101 53.5562C64.1248 54.0657 64.1542 54.59 64.1983 55.0996C63.9703 55.07 63.7276 55.0553 63.4628 55.0553C63.2054 55.0553 62.9553 55.07 62.7273 55.0996C62.7714 54.59 62.8009 54.0657 62.8156 53.5562C62.845 52.7144 62.8376 51.9316 62.8229 51.3777C62.8156 50.9347 62.8009 50.6319 62.8009 50.5728V50.5654L62.6979 50.5728C62.6979 50.5728 62.6979 50.5802 62.6979 50.5876C62.6979 50.6614 62.7126 50.9494 62.72 51.3704C62.7347 51.9242 62.7347 52.7144 62.7052 53.5562C62.6905 54.0657 62.6611 54.59 62.6096 55.0996C60.8885 55.3433 60.1236 56.318 59.9838 57.2411C59.9029 57.7802 60.0868 58.3193 60.4178 58.5187C60.6164 58.6368 60.8664 58.6664 61.1239 58.5925C61.5358 58.4744 61.9256 58.1199 62.161 57.6473C62.4405 57.1008 62.6023 56.1851 62.7052 55.1956C62.9332 55.166 63.1833 55.1513 63.4481 55.1513C63.7129 55.1513 63.963 55.166 64.191 55.1956C64.2866 56.1851 64.4484 57.0934 64.7353 57.6473C64.978 58.1199 65.3678 58.4744 65.7723 58.5925C66.0298 58.6664 66.2799 58.6442 66.4784 58.5187C66.8388 58.3414 67.0227 57.8024 66.9418 57.2633ZM62.1021 57.6177C61.8741 58.0682 61.5063 58.4005 61.1239 58.5113C61.0356 58.5408 60.9474 58.5482 60.8664 58.5482C60.7341 58.5482 60.609 58.5113 60.4987 58.4522C60.2045 58.275 60.0353 57.7728 60.1089 57.278C60.2413 56.3993 60.9768 55.4688 62.6243 55.2251C62.5361 56.1999 62.3743 57.0934 62.1021 57.6177ZM66.4564 58.4522C66.346 58.5187 66.221 58.5482 66.0886 58.5482C66.0077 58.5482 65.9194 58.5334 65.8312 58.5113C65.4487 58.4005 65.081 58.0682 64.8529 57.6177C64.5808 57.0934 64.4264 56.1999 64.3307 55.2325C65.9783 55.4688 66.7138 56.3993 66.8462 57.2854C66.9198 57.7728 66.7506 58.275 66.4564 58.4522Z" stroke="white" stroke-width="3.6763" stroke-miterlimit="10"/>
</g>
<g opacity="0.43">
<g opacity="0.43">
<path opacity="0.43" d="M57.6973 58.3927C58.0135 56.0075 59.9332 53.5411 63.4784 53.5411C67.0236 53.5411 68.8697 56.1257 69.2596 58.3927C69.1934 57.2481 68.7962 56.1847 68.1636 55.3134C67.3399 54.0654 65.1848 52.6475 65.1848 51.8057V50.8383C65.1848 50.6463 65.0303 50.4912 64.8391 50.4912H63.905H63.0518H62.1177C61.9265 50.4912 61.772 50.6463 61.772 50.8383V51.8057C61.772 52.6549 59.6243 54.0654 58.7932 55.3134C58.1606 56.1847 57.7635 57.2481 57.6973 58.3927Z" fill="#FF8C3E"/>
</g>
</g>
<g opacity="0.52">
<path opacity="0.52" d="M61.6309 51.3926H65.3158V48.3427C65.3158 47.848 65.2349 47.3606 65.0804 46.9396C64.7862 46.1421 64.2861 45.6621 63.7418 45.6621H63.2049C62.6606 45.6621 62.1604 46.1421 61.8662 46.9396C61.7118 47.3606 61.6309 47.848 61.6309 48.3427V51.3926Z" fill="#991900"/>
</g>
<g opacity="0.52">
<g opacity="0.52">
<path opacity="0.52" d="M65.3227 49.3398C65.3154 49.3398 65.3007 49.3398 65.2933 49.3398L61.6084 50.0045C61.4834 50.0266 61.3951 50.226 61.4098 50.4402C61.4245 50.6617 61.5422 50.8168 61.6672 50.7947L65.3521 50.13C65.4772 50.1079 65.5654 49.9085 65.5507 49.6943C65.536 49.4949 65.433 49.3472 65.3227 49.3398Z" fill="#E03500"/>
</g>
</g>
<g opacity="0.52">
<g opacity="0.52">
<path opacity="0.52" d="M65.3227 47.9443C65.3154 47.9443 65.3007 47.9443 65.2933 47.9443L61.6084 48.609C61.4834 48.6311 61.3951 48.8305 61.4098 49.0446C61.4245 49.2662 61.5422 49.4213 61.6672 49.3991L65.3521 48.7345C65.4772 48.7123 65.5654 48.513 65.5507 48.2988C65.536 48.0994 65.433 47.9517 65.3227 47.9443Z" fill="#E03500"/>
</g>
</g>
<g opacity="0.52">
<g opacity="0.52">
<path opacity="0.52" d="M65.1765 46.5635C65.1691 46.5635 65.1544 46.5635 65.147 46.5635L61.6533 47.1912C61.5283 47.2133 61.44 47.4127 61.4547 47.6269C61.4694 47.8484 61.5871 48.0035 61.7122 47.9813L65.2059 47.3536C65.3309 47.3315 65.4192 47.1321 65.4045 46.9179C65.3898 46.7186 65.2868 46.5709 65.1765 46.5635Z" fill="#E03500"/>
</g>
</g>
</g>
</g>
<path d="M144.274 46.5324L144.186 11.5293" stroke="#12133F" stroke-width="8.9454" stroke-miterlimit="10"/>
<path d="M149.863 58.7096C149.863 60.7699 148.797 62.5791 147.186 63.6129C146.289 64.1889 145.215 64.5212 144.067 64.5212C140.868 64.5212 138.271 61.9145 138.271 58.7022C138.271 58.4437 138.286 58.1852 138.323 57.9342C138.33 57.8972 138.33 57.8603 138.338 57.8308C138.338 57.8234 138.338 57.816 138.338 57.8086C138.367 57.6092 138.411 57.4099 138.463 57.2105C138.47 57.1736 138.485 57.144 138.492 57.1071C138.499 57.0849 138.507 57.0554 138.514 57.0332C138.536 56.9594 138.558 56.8856 138.588 56.8117C138.602 56.7822 138.61 56.7452 138.625 56.7157L138.823 56.2431C138.838 56.2062 138.853 56.1766 138.875 56.1397L139.147 55.6523C139.161 55.6228 139.184 55.5932 139.198 55.5637L139.389 55.2831C140.213 54.0351 142.361 52.6172 142.361 51.7754V50.808C142.361 50.7859 142.361 50.7637 142.368 50.7489C142.398 50.5865 142.537 50.4609 142.714 50.4609H145.428C145.619 50.4609 145.774 50.616 145.774 50.808V51.7754C145.774 52.1963 146.311 52.7649 146.951 53.3779C147.59 53.9908 148.333 54.6554 148.745 55.2831C148.782 55.3348 148.826 55.3939 148.863 55.4529C148.878 55.4751 148.892 55.4972 148.907 55.5268C148.951 55.5932 148.988 55.6597 149.032 55.7262C149.047 55.7483 149.062 55.7779 149.076 55.8C149.098 55.8296 149.113 55.8665 149.135 55.9034C149.15 55.9329 149.164 55.9551 149.179 55.9846C149.209 56.0437 149.245 56.1028 149.275 56.1692C149.348 56.3243 149.415 56.4794 149.481 56.6419C149.51 56.7231 149.54 56.8117 149.569 56.8929C149.635 57.0849 149.687 57.2843 149.731 57.4837C149.746 57.5575 149.76 57.6314 149.775 57.6979C149.812 57.9194 149.841 58.1409 149.856 58.3699C149.856 58.4806 149.863 58.5988 149.863 58.7096Z" fill="#FEBD57"/>
<path d="M147.532 57.2398C147.392 56.3168 146.627 55.342 144.906 55.0983C144.862 54.5888 144.832 54.0645 144.81 53.5549C144.781 52.7131 144.788 51.9229 144.796 51.3617C144.803 50.8817 144.818 50.5715 144.818 50.5568L144.715 50.5494C144.715 50.6011 144.7 50.8965 144.693 51.3543C144.678 51.9081 144.678 52.6909 144.7 53.5328C144.715 54.0423 144.744 54.5666 144.788 55.0762C144.56 55.0466 144.317 55.0318 144.053 55.0318C143.795 55.0318 143.545 55.0466 143.317 55.0762C143.361 54.5666 143.391 54.0423 143.405 53.5328C143.435 52.6909 143.427 51.9081 143.413 51.3543C143.405 50.9112 143.391 50.6085 143.391 50.5494V50.542L143.288 50.5494C143.288 50.5494 143.288 50.5568 143.288 50.5641C143.288 50.638 143.302 50.926 143.31 51.3469C143.325 51.9008 143.325 52.6909 143.295 53.5328C143.28 54.0423 143.251 54.5666 143.199 55.0762C141.478 55.3198 140.713 56.2946 140.574 57.2177C140.493 57.7568 140.677 58.2958 141.008 58.4952C141.206 58.6134 141.456 58.6429 141.714 58.5691C142.126 58.4509 142.515 58.0965 142.751 57.6238C143.03 57.0774 143.192 56.1617 143.295 55.1721C143.523 55.1426 143.773 55.1278 144.038 55.1278C144.303 55.1278 144.553 55.1426 144.781 55.1721C144.876 56.1617 145.038 57.07 145.325 57.6238C145.568 58.0965 145.958 58.4509 146.362 58.5691C146.62 58.6429 146.87 58.6208 147.068 58.4952C147.436 58.3106 147.613 57.7789 147.532 57.2398ZM142.692 57.5943C142.464 58.0448 142.096 58.3771 141.714 58.4878C141.625 58.5174 141.537 58.5248 141.456 58.5248C141.324 58.5248 141.199 58.4878 141.089 58.4288C140.794 58.2515 140.625 57.7494 140.699 57.2546C140.831 56.3758 141.567 55.4454 143.214 55.2017C143.126 56.1765 142.964 57.0626 142.692 57.5943ZM147.046 58.4288C146.936 58.4952 146.811 58.5248 146.678 58.5248C146.598 58.5248 146.509 58.51 146.421 58.4878C146.039 58.3771 145.671 58.0448 145.443 57.5943C145.171 57.07 145.016 56.1765 144.921 55.2091C146.568 55.4454 147.304 56.3758 147.436 57.262C147.51 57.742 147.34 58.2515 147.046 58.4288Z" stroke="white" stroke-width="3.6763" stroke-miterlimit="10"/>
<g opacity="0.43">
<g opacity="0.43">
<path opacity="0.43" d="M138.287 58.3693C138.603 55.9841 140.523 53.5176 144.068 53.5176C147.613 53.5176 149.46 56.1022 149.849 58.3693C149.783 57.2247 149.386 56.1613 148.753 55.2899C147.93 54.0419 145.775 52.6241 145.775 51.7822V50.8149C145.775 50.6229 145.62 50.4678 145.429 50.4678H144.495H143.642H142.708C142.516 50.4678 142.362 50.6229 142.362 50.8149V51.7822C142.362 52.6315 140.214 54.0419 139.383 55.2899C138.75 56.1613 138.353 57.2173 138.287 58.3693Z" fill="#FF8C3E"/>
</g>
</g>
<path d="M142.229 51.3692H145.913V48.3193C145.913 47.8245 145.833 47.3371 145.678 46.9162C145.384 46.1187 144.884 45.6387 144.339 45.6387H143.803C143.258 45.6387 142.758 46.1187 142.464 46.9162C142.309 47.3371 142.229 47.8245 142.229 48.3193V51.3692Z" fill="#991900"/>
<path d="M145.913 49.3086C145.905 49.3086 145.891 49.3086 145.883 49.3086L142.198 49.9732C142.073 49.9954 141.985 50.1948 142 50.4089C142.014 50.6305 142.132 50.7856 142.257 50.7634L145.942 50.0988C146.067 50.0766 146.155 49.8772 146.141 49.6631C146.126 49.4711 146.023 49.316 145.913 49.3086Z" fill="#E03500"/>
<path d="M145.913 47.9131C145.905 47.9131 145.891 47.9131 145.883 47.9131L142.198 48.5777C142.073 48.5998 141.985 48.7992 142 49.0134C142.014 49.2349 142.132 49.39 142.257 49.3678L145.942 48.7032C146.067 48.6811 146.155 48.4817 146.141 48.2675C146.126 48.0755 146.023 47.9205 145.913 47.9131Z" fill="#E03500"/>
<path d="M145.766 46.5322C145.759 46.5322 145.744 46.5322 145.737 46.5322L142.243 47.1599C142.118 47.1821 142.03 47.3815 142.045 47.5956C142.059 47.8172 142.177 47.9722 142.302 47.9501L145.796 47.3224C145.921 47.3002 146.009 47.1008 145.994 46.8867C145.98 46.6947 145.877 46.5396 145.766 46.5322Z" fill="#E03500"/>
<path d="M74.3181 164.266L63.9473 124.389H41.4184L34.0117 164.266H36.2477L37.6084 157.841H68.8164H70.1771L72.0821 164.266H74.3181ZM67.2056 145.176H65.764H39.734L41.2566 136.079H63.837H65.0653L67.2056 145.176ZM62.8661 126.693L64.5283 133.782H63.3662H41.6464L42.8379 126.693H62.8661ZM68.1912 155.537H37.9982L39.3516 147.48H66.2789H67.7499L69.6402 155.537H68.1912Z" fill="#2794D7"/>
<path d="M60.549 133.782H34.5117V136.086H60.549V133.782Z" fill="#2794D7"/>
<path d="M63.5665 145.177H32.2188V147.481H63.5665V145.177Z" fill="#2794D7"/>
<path d="M65.7214 155.537H30.9902V157.841H65.7214V155.537Z" fill="#2794D7"/>
<path d="M58.291 133.782H60.5491V136.086H58.7765C58.5926 135.23 58.4308 134.454 58.291 133.782Z" fill="#2794D7"/>
<path d="M63.5664 147.481H61.3011C61.1245 146.713 60.948 145.945 60.7715 145.177H63.5664V147.481Z" fill="#2794D7"/>
<path d="M65.7198 155.537V157.841H63.9324C63.7265 157.154 63.5058 156.379 63.2852 155.537H65.7198Z" fill="#2794D7"/>
<path d="M30.9902 155.537H33.3218C33.1306 156.438 32.9541 157.221 32.7996 157.841H30.9976V155.537H30.9902Z" fill="#2794D7"/>
<path d="M32.2188 145.177H35.2711C35.1388 145.945 34.999 146.72 34.8593 147.481H32.2188V145.177Z" fill="#2794D7"/>
<path d="M37.2037 133.782C37.0934 134.454 36.9683 135.23 36.8212 136.086H34.5117V133.782H37.2037Z" fill="#2794D7"/>
<path d="M58.8951 124.389H35.5718L27.9004 165.971H30.2099L37.0282 126.693H57.7698L67.3168 165.971H69.6263L58.8951 124.389Z" fill="#2794D7"/>
<path d="M54.0483 36.3269C63.1172 31.2315 69.2146 20.4056 67.1184 10.1853C66.6624 7.97731 65.8386 5.80623 64.4411 4.04131C63.0289 2.26161 61.0945 0.969306 59.0939 -0.0940793C51.9888 -3.88977 43.4274 -5.13777 35.7044 -2.86331C27.9815 -0.588849 21.2809 5.38531 18.714 13.0432C17.8314 15.6721 17.4342 18.4413 17.1988 21.2032C16.5442 28.861 19.4348 37.0579 27.4519 39.1109C36.1972 41.3558 46.0826 40.8019 54.0483 36.3269Z" fill="#EBF0FF"/>
<path d="M95.6113 140.192C95.6113 140.192 97.406 142.451 97.2515 143.552C97.0971 144.652 100.495 144.231 101.047 143.234C101.598 142.237 100.944 140.731 100.944 140.731C100.944 140.731 99.7375 139.852 98.7593 137.814C97.7811 135.776 95.6113 140.192 95.6113 140.192Z" fill="#BC473B"/>
<path d="M104.379 142.163C104.555 142.34 104.702 142.54 104.783 142.732L94.0594 154.266C94.0594 154.266 93.6916 154.466 93.0885 154.104C92.9487 154.023 92.7943 153.904 92.6325 153.749C91.7719 152.93 95.067 147.901 95.8099 145.9C96.766 143.315 97.1191 143.906 97.1191 143.906C97.1191 143.906 99.2006 142.85 100.311 140.524C100.311 140.524 99.9067 138.929 103.283 141.306C103.29 141.306 103.923 141.683 104.379 142.163Z" fill="#454B6B"/>
<path d="M104.378 142.163C104.555 142.34 104.702 142.54 104.783 142.732L94.0588 154.266C94.0588 154.266 93.691 154.466 93.0879 154.104L104.378 142.163Z" fill="#20307B"/>
<path d="M96.8243 146.83C96.7875 146.875 96.7213 146.882 96.6846 146.845C96.1991 146.439 95.6402 146.387 95.6328 146.387C95.574 146.38 95.5445 146.336 95.5519 146.276C95.5666 146.217 95.6181 146.173 95.6769 146.18C95.699 146.18 96.3021 146.232 96.8243 146.675C96.8611 146.712 96.8611 146.779 96.8243 146.83C96.8243 146.823 96.8243 146.823 96.8243 146.83Z" fill="white"/>
<path d="M95.9576 148.063C95.9209 148.108 95.8547 148.115 95.8179 148.078C95.3472 147.679 94.9647 147.701 94.9647 147.701C94.9059 147.701 94.8691 147.664 94.8691 147.605C94.8765 147.546 94.9206 147.502 94.9795 147.495C94.9942 147.495 95.4355 147.465 95.965 147.916C96.0018 147.952 96.0018 148.019 95.9576 148.063Z" fill="white"/>
<path d="M97.5761 145.457C97.5393 145.501 97.4731 145.508 97.4363 145.472C96.642 144.792 96.1492 145.257 96.1492 145.265C96.105 145.309 96.0388 145.309 96.0021 145.272C95.9653 145.235 95.9726 145.169 96.0168 145.124C96.0462 145.102 96.6567 144.512 97.5834 145.302C97.6202 145.339 97.6202 145.405 97.5761 145.457Z" fill="white"/>
<path d="M91.3883 122.047C91.3883 122.047 98.4419 134.195 99.6702 137.961C99.6702 137.961 98.1845 139.505 96.0368 140.117C96.0368 140.117 88.7699 135.753 84.0625 129.055C79.3552 122.358 74.1698 118.259 78.5462 116.657C82.9225 115.039 90.0349 117.698 91.3883 122.047Z" fill="#1A4EA2"/>
<path d="M85.7773 143.625C85.7773 143.625 87.572 145.885 87.4175 146.985C87.2557 148.093 90.6611 147.665 91.2128 146.668C91.7644 145.671 91.1098 144.164 91.1098 144.164C91.1098 144.164 89.9036 143.286 88.9253 141.247C87.9471 139.209 85.7773 143.625 85.7773 143.625Z" fill="#BC473B"/>
<path d="M94.5447 145.597C94.7212 145.774 94.8683 145.973 94.9492 146.165L84.2254 157.7C84.2254 157.7 83.8576 157.899 83.2545 157.537C83.1147 157.456 82.9603 157.338 82.7985 157.183C81.9379 156.363 85.233 151.334 85.9759 149.333C86.9321 146.749 87.2851 147.339 87.2851 147.339C87.2851 147.339 89.3666 146.283 90.4773 143.957C90.4773 143.957 90.0727 142.362 93.4487 144.74C93.4561 144.74 94.0813 145.117 94.5447 145.597Z" fill="#454B6B"/>
<path d="M94.5441 145.597C94.7206 145.774 94.8677 145.973 94.9486 146.165L84.2248 157.7C84.2248 157.7 83.857 157.899 83.2539 157.538L94.5441 145.597Z" fill="#20307B"/>
<path d="M86.9845 150.264C86.9477 150.308 86.8815 150.316 86.8448 150.279C86.3593 149.873 85.8003 149.821 85.793 149.821C85.7341 149.813 85.7047 149.769 85.712 149.71C85.7268 149.651 85.7782 149.607 85.8371 149.614C85.8591 149.614 86.4623 149.666 86.9845 150.109C87.0286 150.146 87.0286 150.212 86.9845 150.264C86.9845 150.257 86.9845 150.257 86.9845 150.264Z" fill="white"/>
<path d="M86.116 151.497C86.0792 151.541 86.013 151.548 85.9762 151.512C85.5055 151.113 85.123 151.135 85.123 151.135C85.0641 151.135 85.0273 151.098 85.0273 151.039C85.0347 150.98 85.0788 150.936 85.1377 150.928C85.1524 150.928 85.5937 150.899 86.1233 151.349C86.1601 151.386 86.1601 151.445 86.116 151.497C86.1233 151.497 86.1233 151.497 86.116 151.497Z" fill="white"/>
<path d="M87.7421 148.89C87.7053 148.935 87.6391 148.942 87.6023 148.905C86.808 148.226 86.3152 148.691 86.3152 148.698C86.271 148.743 86.2049 148.743 86.1681 148.706C86.1313 148.669 86.1387 148.602 86.1828 148.558C86.2122 148.536 86.8227 147.945 87.7494 148.735C87.7788 148.772 87.7862 148.839 87.7421 148.89C87.7421 148.89 87.7421 148.883 87.7421 148.89Z" fill="white"/>
<path d="M87.2253 50.1801L87.1738 18.6035" stroke="#12133F" stroke-width="8.2381" stroke-miterlimit="10"/>
<path d="M90.7415 81.3066C90.7415 81.3066 89.6161 82.1706 89.4323 79.5195C89.2484 76.8684 94.7206 75.7755 94.3822 77.2303C94.0439 78.6703 90.7415 81.3066 90.7415 81.3066Z" fill="#1E0000"/>
<path d="M106.702 81.203C106.592 81.4245 98.4423 79.2387 97.6259 78.7439C97.3391 78.5667 96.9492 77.9316 96.5373 77.0676C95.7871 75.5021 94.9413 73.2128 94.4044 71.699C94.1175 70.8941 93.4408 68.9002 92.6391 66.5519C92.0948 64.9642 91.5064 63.2215 90.9401 61.5599C89.9104 58.5322 88.9836 55.7926 88.66 54.8621C88.226 53.5993 87.9686 50.8301 87.9465 48.5556C87.9318 46.8498 88.0495 45.4246 88.329 45.1218C88.9836 44.4129 89.5794 47.2486 90.2855 48.563C90.9916 49.8701 91.9698 54.2418 92.2419 55.1132C92.3376 55.4086 93.4702 57.3359 94.9266 59.7655C97.773 64.4842 101.862 71.1008 101.973 71.3076C102.068 71.4922 103.525 71.7729 104.68 71.9722C105.452 72.1052 106.084 72.1938 106.084 72.1938C106.084 72.1938 107.842 73.0652 108.276 74.5421C108.71 76.019 106.812 80.9888 106.702 81.203Z" fill="#DB6D5E"/>
<path d="M94.9261 59.765C94.4113 59.7206 93.8964 59.8166 93.411 59.9939C92.3812 58.4653 90.8661 56.7594 90.4248 55.8437C89.7555 54.4628 90.5792 53.7465 90.2262 51.4573C89.9026 49.3526 88.2109 48.6585 87.9387 48.5625C87.924 46.8566 88.0417 45.4314 88.3212 45.1286C88.9758 44.4197 89.5716 47.2554 90.2777 48.5699C90.9838 49.877 91.962 54.2486 92.2341 55.12C92.3298 55.408 93.4625 57.3354 94.9261 59.765Z" fill="#1A4EA2"/>
<path d="M93.4127 59.9946C92.3977 60.3564 91.493 61.0654 90.934 61.5675C90.7575 61.0506 90.581 60.5337 90.4118 60.0389C90.3971 59.9946 90.3824 59.9503 90.3677 59.906C90.2794 59.6549 90.1985 59.4186 90.1176 59.1749C90.1029 59.138 90.0956 59.1084 90.0808 59.0715C90.0661 59.0272 90.0514 58.9829 90.0367 58.9386C90.022 58.8869 89.9999 58.8426 89.9852 58.7983C89.9043 58.562 89.8308 58.333 89.7499 58.1115C89.7278 58.0524 89.7057 57.986 89.691 57.9269C89.6322 57.757 89.5733 57.5872 89.5218 57.4247C89.4998 57.3583 89.4777 57.2918 89.4557 57.2327C89.4262 57.1515 89.3968 57.0703 89.3747 56.989C89.36 56.9374 89.338 56.8783 89.3233 56.8266C89.3159 56.8118 89.3159 56.8044 89.3086 56.7897C89.2938 56.7527 89.2865 56.7232 89.2718 56.6863C89.2718 56.6789 89.2644 56.6715 89.2644 56.6641C89.2497 56.6124 89.2276 56.5607 89.2129 56.5164C89.2129 56.509 89.2056 56.5017 89.2056 56.4943C89.1909 56.45 89.1762 56.413 89.1615 56.3687C89.1394 56.317 89.1247 56.258 89.11 56.2063C89.0953 56.1693 89.0805 56.125 89.0658 56.0881C89.0438 56.0217 89.0217 55.9552 88.9996 55.8887C88.9849 55.8518 88.9776 55.8223 88.9629 55.7853C88.9555 55.7558 88.9481 55.7337 88.9334 55.7041V55.6967C88.9187 55.6598 88.904 55.6229 88.8967 55.586C88.8893 55.5638 88.882 55.549 88.8746 55.5269C88.8525 55.453 88.8231 55.3792 88.801 55.3127C88.7716 55.2315 88.7422 55.1503 88.7201 55.0764C88.7128 55.0543 88.7054 55.0321 88.6981 55.01C88.676 54.9509 88.6613 54.8918 88.6392 54.8475C88.2053 53.5847 87.9478 50.8155 87.9258 48.541C88.1979 48.637 89.8896 49.3238 90.2132 51.4358C90.5663 53.7324 89.7425 54.4413 90.4118 55.8223C90.8679 56.7601 92.383 58.466 93.4127 59.9946Z" fill="#0F2470"/>
<g opacity="0.4">
<path opacity="0.4" d="M88.8145 55.335C88.8365 55.4014 88.8586 55.4752 88.888 55.5491C88.8586 55.4752 88.8365 55.4014 88.8145 55.335Z" fill="#FF9D6C"/>
</g>
<g opacity="0.4">
<path opacity="0.4" d="M92.6326 66.5591C92.0884 64.9714 91.4999 63.2286 90.9336 61.5671C91.4926 61.0649 92.3973 60.356 93.4123 59.9941C93.9419 60.7843 94.3464 61.5228 94.4052 62.084C94.5156 63.2139 93.5005 65.3628 92.6326 66.5591Z" fill="#FF9D6C"/>
</g>
<path d="M93.1699 62.4234C93.1699 64.4837 92.1034 66.293 90.4926 67.3268C89.5953 67.9028 88.5214 68.2351 87.374 68.2351C84.1745 68.2351 81.5781 65.6283 81.5781 62.416C81.5781 62.1576 81.5928 61.8991 81.6296 61.648C81.637 61.6111 81.637 61.5742 81.6443 61.5446C81.6443 61.5373 81.6443 61.5299 81.6443 61.5225C81.6737 61.3231 81.7179 61.1237 81.7694 60.9243C81.7767 60.8874 81.7914 60.8579 81.7988 60.821C81.8061 60.7988 81.8135 60.7693 81.8208 60.7471C81.8429 60.6733 81.865 60.5994 81.8944 60.5256C81.9091 60.496 81.9165 60.4591 81.9312 60.4296L82.1298 59.957C82.1445 59.92 82.1592 59.8905 82.1813 59.8536L82.4534 59.3662C82.4681 59.3366 82.4902 59.3071 82.5049 59.2776L82.6961 58.997C83.5199 57.749 85.6676 56.3311 85.6676 55.4893V54.5219C85.6676 54.4997 85.6676 54.4776 85.675 54.4628C85.7044 54.3003 85.8441 54.1748 86.0206 54.1748H88.7347C88.9259 54.1748 89.0804 54.3299 89.0804 54.5219V55.4893C89.0804 55.9102 89.6173 56.4788 90.2572 57.0917C90.8971 57.7046 91.64 58.3693 92.0519 58.997C92.0887 59.0486 92.1328 59.1077 92.1696 59.1668C92.1843 59.189 92.199 59.2111 92.2137 59.2407C92.2578 59.3071 92.2946 59.3736 92.3387 59.44C92.3534 59.4622 92.3682 59.4917 92.3829 59.5139C92.4049 59.5434 92.4196 59.5803 92.4417 59.6173C92.4564 59.6468 92.4711 59.669 92.4858 59.6985C92.5153 59.7576 92.552 59.8166 92.5815 59.8831C92.655 60.0382 92.7212 60.1933 92.7874 60.3557C92.8168 60.437 92.8462 60.5256 92.8757 60.6068C92.9419 60.7988 92.9933 60.9982 93.0375 61.1976C93.0522 61.2714 93.0669 61.3453 93.0816 61.4117C93.1184 61.6333 93.1478 61.8548 93.1625 62.0837C93.1699 62.1945 93.1699 62.3053 93.1699 62.4234Z" fill="#FEBD57"/>
<path d="M90.8461 60.9547C90.7064 60.0316 89.9414 59.0568 88.2203 58.8131C88.1762 58.3036 88.1468 57.7793 88.1247 57.2698C88.0953 56.4279 88.1026 55.6378 88.11 55.0765C88.1174 54.5965 88.1321 54.2864 88.1321 54.2716L88.0291 54.2642C88.0291 54.3159 88.0144 54.6113 88.007 55.0691C87.9923 55.623 87.9923 56.4058 88.0144 57.2476C88.0291 57.7571 88.0585 58.2815 88.1026 58.791C87.8746 58.7615 87.6319 58.7467 87.3671 58.7467C87.1097 58.7467 86.8596 58.7615 86.6316 58.791C86.6757 58.2815 86.7052 57.7571 86.7199 57.2476C86.7493 56.4058 86.7419 55.623 86.7272 55.0691C86.7199 54.6261 86.7052 54.3233 86.7052 54.2642V54.2568L86.6022 54.2642C86.6022 54.2642 86.6022 54.2716 86.6022 54.279C86.6022 54.3528 86.6169 54.6408 86.6243 55.0618C86.639 55.6156 86.639 56.4058 86.6095 57.2476C86.5948 57.7571 86.5654 58.2815 86.5139 58.791C84.7928 59.0347 84.0279 60.0095 83.8881 60.9325C83.8072 61.4716 83.9911 62.0107 84.3221 62.2101C84.5207 62.3282 84.7707 62.3578 85.0282 62.2839C85.4401 62.1658 85.8299 61.8113 86.0653 61.3387C86.3448 60.7922 86.5066 59.8765 86.6095 58.887C86.8376 58.8575 87.0876 58.8427 87.3524 58.8427C87.6172 58.8427 87.8673 58.8575 88.0953 58.887C88.1909 59.8765 88.3527 60.7848 88.6396 61.3387C88.8823 61.8113 89.2721 62.1658 89.6767 62.2839C89.9341 62.3578 90.1842 62.3356 90.3828 62.2101C90.7432 62.0255 90.927 61.4938 90.8461 60.9547ZM86.0064 61.3018C85.7784 61.7522 85.4106 62.0845 85.0282 62.1953C84.9399 62.2248 84.8517 62.2322 84.7707 62.2322C84.6384 62.2322 84.5133 62.1953 84.403 62.1362C84.1088 61.959 83.9396 61.4568 84.0132 60.9621C84.1456 60.0833 84.8811 59.1528 86.5286 58.9091C86.433 59.8913 86.2712 60.7775 86.0064 61.3018ZM90.3533 62.1362C90.243 62.2027 90.118 62.2322 89.9856 62.2322C89.9047 62.2322 89.8164 62.2175 89.7281 62.1953C89.3457 62.0845 88.9779 61.7522 88.7499 61.3018C88.4778 60.7775 88.3233 59.8839 88.2277 58.9165C89.8752 59.1528 90.6108 60.0833 90.7432 60.9695C90.8167 61.4568 90.6475 61.959 90.3533 62.1362Z" stroke="white" stroke-width="3.6763" stroke-miterlimit="10"/>
<g opacity="0.43">
<g opacity="0.43">
<path opacity="0.43" d="M81.5996 62.0842C81.9159 59.6989 83.8356 57.2325 87.3808 57.2325C90.926 57.2325 92.7721 59.8171 93.1619 62.0842C93.0957 60.9395 92.6986 59.8762 92.066 59.0048C91.2422 57.7568 89.0872 56.3389 89.0872 55.4971V54.5297C89.0872 54.3377 88.9327 54.1826 88.7415 54.1826H87.8074H86.9542H86.0201C85.8288 54.1826 85.6744 54.3377 85.6744 54.5297V55.4971C85.6744 56.3463 83.5267 57.7568 82.6955 59.0048C82.063 59.8762 81.6658 60.9322 81.5996 62.0842Z" fill="#FF8C3E"/>
</g>
</g>
<path d="M85.5352 55.0762H89.2201V52.0263C89.2201 51.5315 89.1392 51.0442 88.9847 50.6232C88.6905 49.8257 88.1904 49.3457 87.6461 49.3457H87.1092C86.5649 49.3457 86.0647 49.8257 85.7705 50.6232C85.6161 51.0442 85.5352 51.5315 85.5352 52.0263V55.0762Z" fill="#991900"/>
<path d="M89.2192 53.0234C89.2119 53.0234 89.1972 53.0234 89.1898 53.0234L85.5049 53.6881C85.3798 53.7102 85.2916 53.9096 85.3063 54.1238C85.321 54.3453 85.4387 54.5004 85.5637 54.4782L89.2486 53.8136C89.3737 53.7915 89.4619 53.5921 89.4472 53.3779C89.4325 53.1785 89.3369 53.0308 89.2192 53.0234Z" fill="#E03500"/>
<path d="M89.2192 51.6279C89.2119 51.6279 89.1972 51.6279 89.1898 51.6279L85.5049 52.2925C85.3798 52.3147 85.2916 52.5141 85.3063 52.7282C85.321 52.9497 85.4387 53.1048 85.5637 53.0827L89.2486 52.4181C89.3737 52.3959 89.4619 52.1965 89.4472 51.9824C89.4325 51.783 89.3369 51.6353 89.2192 51.6279Z" fill="#E03500"/>
<path d="M89.0729 50.2471C89.0655 50.2471 89.0508 50.2471 89.0435 50.2471L85.5498 50.8748C85.4248 50.8969 85.3365 51.0963 85.3512 51.3105C85.3659 51.532 85.4836 51.6871 85.6086 51.6649L89.1023 51.0372C89.2274 51.0151 89.3156 50.8157 89.3009 50.6015C89.2862 50.4022 89.1906 50.2545 89.0729 50.2471Z" fill="#E03500"/>
<path d="M90.8604 64.5576C90.8383 65.1484 90.4926 67.3268 90.4926 67.3268C89.5953 67.9029 88.5214 68.2352 87.374 68.2352C84.1745 68.2352 81.5781 65.6284 81.5781 62.4161C81.5781 62.1576 81.5928 61.8991 81.6296 61.6481C81.637 61.6111 81.637 61.5742 81.6443 61.5447C81.6443 61.5373 81.6443 61.5299 81.6443 61.5225C81.6664 61.5004 81.6811 61.4782 81.7032 61.4561C82.1077 61.0351 82.755 60.533 83.0565 61.1459C83.5125 62.0837 83.2183 65.1779 84.2848 66.2413C85.3513 67.3047 87.0945 67.7625 87.6756 67.0167C88.2566 66.2708 88.5288 63.4794 90.3749 63.7674C90.3896 63.7822 90.8824 63.9668 90.8604 64.5576Z" fill="#FF8C3E"/>
<path d="M106.702 81.2029C106.592 81.4245 98.4421 79.2386 97.6257 78.7439C97.3388 78.5666 96.949 77.9316 96.5371 77.0676C97.7728 77.6583 100.869 79.3863 102.863 78.7217C105.349 77.8946 104.944 74.3353 104.679 71.9648C105.452 72.0978 106.084 72.1864 106.084 72.1864C106.084 72.1864 107.842 73.0578 108.276 74.5347C108.71 76.019 106.812 80.9888 106.702 81.2029Z" fill="#BC473B"/>
<path d="M104.166 80.6936C104.166 80.6936 105.703 78.1975 106.086 76.7058C106.468 75.2141 106.086 72.2012 106.086 72.2012H106.578C106.578 72.2012 107.616 74.8597 107.204 76.9495C106.792 79.0394 105.174 80.9372 105.174 80.9372L104.166 80.6936Z" fill="#1E0000"/>
<path d="M122.796 79.5117C121.185 80.9074 107.313 84.7031 104.621 81.3061L104.709 81.1954C104.709 81.1954 107.651 75.812 106.416 72.2821C106.416 72.2821 106.041 71.7947 106.901 71.7209C107.512 71.6692 116.316 72.0237 121.486 72.2452C123.627 72.3338 125.142 72.4003 125.186 72.4003C125.341 72.3929 124.406 78.116 122.796 79.5117Z" fill="#FEBD57"/>
<path d="M122.796 79.5116C121.185 80.9073 107.313 84.703 104.621 81.306L104.709 81.1953C104.709 81.1953 107.651 75.8118 106.416 72.2819C106.416 72.2819 106.041 71.7946 106.901 71.7207C106.901 71.7207 108.004 74.6746 107.651 76.2549C107.298 77.8352 110.969 76.8309 113.227 75.8192C114.617 75.1989 118.581 73.493 121.486 72.245C123.627 72.3336 125.142 72.4001 125.186 72.4001C125.341 72.3927 124.406 78.1158 122.796 79.5116Z" fill="#FF8C3E"/>
<path d="M132.019 73.4342C131.99 74.3352 122.038 77.1561 122.686 75.0441C122.862 74.4681 122.892 73.5745 122.847 72.5776C122.722 69.9413 122.038 66.6035 122.038 66.6035C122.038 66.6035 119.722 66.8546 117 66.3893C114.279 65.9241 114.374 62.6379 114.161 61.7666C113.948 60.8952 113.418 61.3013 112.521 60.777C111.623 60.2527 111.719 59.4109 113.264 57.9266C114.808 56.4349 114.499 54.4853 115.117 52.4989C115.735 50.5124 118.111 47.9056 121.546 47.1967C122.215 47.0564 128.871 50.3573 129.702 52.8459C130.534 55.3272 129.982 59.9204 129.982 59.9204C129.982 59.9204 130.232 65.1044 130.504 67.209C130.615 68.073 130.894 69.1216 131.188 70.1259C131.607 71.5585 132.041 72.9025 132.019 73.4342Z" fill="#DB6D5E"/>
<path d="M115.897 57.3951C116.137 57.3951 116.331 57.0844 116.331 56.701C116.331 56.3176 116.137 56.0068 115.897 56.0068C115.657 56.0068 115.463 56.3176 115.463 56.701C115.463 57.0844 115.657 57.3951 115.897 57.3951Z" fill="#12133F"/>
<path d="M114.264 62.4311C114.374 62.4754 114.484 62.4828 114.595 62.4902H114.676L114.756 62.4828C114.815 62.4828 114.867 62.4754 114.926 62.468C115.146 62.4459 115.374 62.4016 115.595 62.3425C115.816 62.2908 116.036 62.2243 116.257 62.1578L116.588 62.0618C116.698 62.0249 116.809 61.9954 116.926 61.9658C116.831 62.0249 116.728 62.084 116.625 62.1431C116.522 62.1948 116.411 62.2465 116.308 62.2908C116.205 62.3425 116.088 62.372 115.985 62.4163C115.874 62.4532 115.757 62.4828 115.646 62.5123C115.418 62.564 115.183 62.601 114.948 62.601C114.83 62.601 114.712 62.5936 114.595 62.564C114.47 62.5493 114.352 62.5123 114.264 62.4311Z" fill="#D12C00"/>
<path opacity="0.45" d="M116.479 57.0031C116.479 58.3988 115.78 59.5286 114.919 59.5286C114.779 59.5286 114.64 59.4991 114.507 59.44C113.845 59.1446 113.367 58.1625 113.367 57.0031C113.367 55.6074 114.066 54.4775 114.927 54.4775C115.206 54.4775 115.471 54.5957 115.691 54.8025C116.155 55.2382 116.479 56.0578 116.479 57.0031Z" fill="#FF9D6C"/>
<path d="M123.385 56.8409L116.765 56.5677C116.618 55.711 116.206 55.039 115.676 54.8027C116.147 55.2384 116.463 56.0581 116.463 57.0034C116.463 58.399 115.765 59.5289 114.904 59.5289C114.764 59.5289 114.625 59.4994 114.492 59.4403C114.72 59.647 114.978 59.7652 115.257 59.7652C116.118 59.7652 116.816 58.6354 116.816 57.2397H123.377V56.8409H123.385Z" fill="#FF9D6C"/>
<path d="M114.919 54.4779C115.779 54.4779 116.478 55.6078 116.478 57.0035C116.478 58.3992 115.779 59.529 114.919 59.529C114.058 59.529 113.359 58.3992 113.359 57.0035C113.359 55.6078 114.058 54.4779 114.919 54.4779ZM114.919 54.249C113.918 54.249 113.139 55.4601 113.139 57.0035C113.139 58.5469 113.918 59.7579 114.919 59.7579C115.919 59.7579 116.699 58.5469 116.699 57.0035C116.699 55.4601 115.919 54.249 114.919 54.249Z" fill="#D12C00"/>
<path d="M116.611 56.9001L116.537 56.2207L123.385 56.5013V56.9001H116.611Z" fill="#D12C00"/>
<path d="M124.972 56.4644C124.972 56.4644 126.326 57.0994 126.046 58.5394C125.767 59.9795 123.59 60.8213 122.714 60.5185C122.714 60.5185 122.303 60.5555 123.141 61.0798C123.98 61.6041 125.039 61.3604 125.973 61.2127C126.907 61.065 127.716 62.6158 128.76 63.1549C129.805 63.6939 130.172 63.3247 130.172 63.3247L130.136 61.8109C130.136 61.8109 131.916 55.076 130.665 53.2077C129.415 51.3394 124.972 56.4644 124.972 56.4644Z" fill="#BC473B"/>
<path d="M132.018 73.4344C131.989 74.3354 122.037 77.1563 122.685 75.0443C122.861 74.4683 122.891 73.5747 122.846 72.5778C124.031 72.6664 129.238 72.9027 131.187 70.1113C131.606 71.5587 132.04 72.9027 132.018 73.4344Z" fill="#FF9D6C"/>
<path d="M106.084 80.4941C106.084 80.4941 106.621 79.0245 108.842 79.6892C111.063 80.3612 111.424 89.2375 110.755 90.1089C110.085 90.9802 108.533 91.0246 108.533 91.0246L106.084 80.4941Z" fill="#1E0000"/>
<path d="M114.264 83.2631L112.712 88.9714C112.712 88.9714 109.895 90.0127 106.445 90.3524C103.871 90.6108 101.532 91.3271 98.8844 90.1087C97.9797 89.6878 97.0382 89.0453 96.0379 88.0779C92.125 84.2822 89.2344 78.6995 89.2344 78.6995C89.2344 78.6995 92.2573 75.6644 93.2356 76.3364C94.2138 77.0084 100.841 82.4508 100.841 82.4508C101.716 82.4213 104.401 81.4613 106.159 80.7967C107.085 80.4496 107.755 80.1838 107.755 80.1838L114.264 83.2631Z" fill="#DB6D5E"/>
<path d="M114.264 83.263L112.712 88.9713C112.712 88.9713 109.895 90.0125 106.446 90.3522C103.872 90.6106 101.533 91.3269 98.8848 90.1085C101.069 90.4999 108.954 89.2223 108.145 85.2642C107.336 81.3134 106.159 80.7965 106.159 80.7965C107.086 80.4494 107.755 80.1836 107.755 80.1836L114.264 83.263Z" fill="#BC473B"/>
<path d="M107.203 80.4057C107.203 80.4057 107.483 80.3392 107.608 80.5091C108.145 81.2106 109.344 83.4407 109.27 86.1435C109.174 89.4813 108.343 90.1164 108.343 90.1164C108.343 90.1164 109.027 90.3453 109.27 90.3453C109.513 90.3453 111.668 90.6998 112.065 89.1933C112.462 87.6869 113.485 83.6697 112.742 81.7201C112.006 79.7706 107.939 78.7442 107.203 80.4057Z" fill="#1E0000"/>
<path d="M137.483 94.8648C137.358 95.6107 137.196 96.2236 136.983 96.6519C135.696 99.2439 128.355 109.198 125.737 109.42C123.111 109.641 109.644 106.03 109.019 104.066C108.394 102.102 113.866 90.6261 113.866 90.6261C113.866 90.6261 109.46 92.7233 108.533 91.0249C108.533 91.0249 109.776 91.5639 110.041 89.2378C110.306 86.919 109.283 77.9024 106.084 80.487C106.084 80.487 106.135 80.2064 106.305 79.8889C106.496 79.527 106.834 79.1135 107.415 78.9732C108.526 78.7073 111.461 77.8138 113.417 76.9202C114.976 76.2039 118.154 74.4685 121.118 73.8482C121.868 73.6932 122.596 73.6045 123.288 73.6193C126.708 73.7079 130.614 73.3682 131.503 71.2119C131.503 71.2119 131.864 70.4882 132.313 70.9387C132.754 71.3818 135.644 75.6279 136.718 80.1769C137.321 82.7467 137.741 86.8304 137.755 90.3676C137.77 92.0735 137.682 93.6464 137.483 94.8648Z" fill="#FEBD57"/>
<path d="M137.483 94.8643C136.865 95.5511 135.887 96.26 135.416 95.6914C134.813 94.9603 133.011 83.2262 134.276 82.2588C134.276 82.2588 135.688 84.3265 135.902 87.9154C136.027 90.0791 137.005 90.4335 137.763 90.3745C137.77 92.0729 137.682 93.6458 137.483 94.8643Z" fill="#FF8C3E"/>
<path d="M121.119 73.848C121.119 73.848 127.76 74.6973 129.482 79.7705C131.21 84.8438 130.629 97.7595 129.026 100.004C127.422 102.249 116.463 103.556 114.654 102.559C112.844 101.563 112.204 97.8185 115.198 94.8425C118.191 91.8665 125.282 90.0721 124.671 86.6825L114.801 90.8032C114.801 90.8032 113.227 91.0764 112.322 92.8339C111.417 94.5988 109.453 103.926 112.065 105.107C114.683 106.289 127.51 105.624 129.842 102.648C132.174 99.6721 134.167 94.2148 133.924 89.4813C133.681 84.7478 132.711 79.1281 130.747 77.6068C128.79 76.093 124.407 71.7213 121.119 73.848Z" fill="#FF8C3E"/>
<path d="M133.269 111.28C132.747 112.69 131.512 114.699 130.121 116.649C128.246 119.27 126.069 121.773 124.936 122.505C122.958 123.782 104.673 124.941 102.091 125.023C100.664 125.067 95.2653 124.535 90.7345 124.048C87.1525 123.664 84.1148 123.309 84.0266 123.295C84.0339 123.295 84.0413 123.309 84.0633 123.346C84.5856 124.233 90.6609 136.978 91.0949 140.641C91.0949 140.641 88.219 144.245 84.8503 144.319C84.8503 144.319 84.1516 143.625 83.0483 142.487C79.6502 139.002 72.3907 131.351 69.7134 126.935C66.1608 121.079 64.4765 117.21 67.1685 115.113C69.8605 113.008 74.9797 109.67 85.0416 107.115C95.0961 104.56 101.495 102.426 103.062 101.296C104.628 100.166 110.726 95.3144 112.741 91.0905L113.874 90.6252C113.844 90.6917 112.506 93.9409 111.925 96.8357C111.704 97.936 111.594 98.9846 111.704 99.7895C112.116 102.714 113.315 104.671 117.39 104.405C121.464 104.139 127.856 102.98 129.614 101.215C131.372 99.4498 132.865 91.0757 131.747 84.2818C130.622 77.488 126.15 73.264 121.133 73.84C121.207 73.7736 123.914 71.2259 128.305 74.2609C132.755 77.3403 134.586 82.1846 134.961 84.9612C135.336 87.7378 135.035 94.1624 135.895 94.0074C136.756 93.8597 137.661 93.4831 137.661 93.4831C137.661 93.4831 138.55 92.7668 138.661 93.3723C138.764 93.9705 134.498 107.979 133.269 111.28Z" fill="#1A4EA2"/>
<path d="M135.697 57.7941C134.696 61.0212 130.298 62.572 130.136 62.631H130.129C127.687 62.1363 127.385 56.8932 127.385 56.8932C126.091 57.2034 124.818 56.3689 124.818 56.3689C123.303 55.6895 122.627 59.4704 121.987 59.2858C121.347 59.1012 123.553 55.6526 122.722 55.2538C122.553 55.1726 122.332 55.0987 122.082 55.0249C121.089 54.7221 119.604 54.3234 118.736 52.7431C117.654 50.7566 119.581 47.8397 119.581 47.8397C116.97 49.2058 115.374 51.8495 115.374 51.8495C111.057 47.6034 117.25 45.5431 120.28 44.524C124.473 43.1135 126.091 45.8237 126.091 45.8237C129.18 44.5535 132.026 48.4895 132.026 48.4895C133.306 49.6637 134.27 50.764 134.932 51.8421C136.131 53.7991 136.359 55.6821 135.697 57.7941Z" fill="#260121"/>
<path d="M119.581 47.8393C119.581 47.8393 120.832 47.0934 121.516 47.0344C121.516 47.0344 117.345 46.9753 115.83 48.9248C114.315 50.8818 114.727 51.1328 114.727 51.1328L115.367 51.8418C115.374 51.8491 116.691 49.7002 119.581 47.8393Z" fill="#11000F"/>
<path d="M127.386 56.8999C126.092 57.2101 124.819 56.3756 124.819 56.3756C123.304 55.6962 122.627 59.4771 121.987 59.2925C121.348 59.1079 123.554 55.6593 122.723 55.2605C122.554 55.1793 122.333 55.1054 122.083 55.0316C121.068 53.9387 121.517 50.4531 121.517 50.4531C123.554 56.8999 127.386 56.8999 127.386 56.8999Z" fill="#11000F"/>
<path d="M135.697 57.7938C134.697 61.0209 130.299 62.5716 130.137 62.6307C130.328 62.5347 135.057 59.4996 135.425 56.4424C135.785 53.3999 134.954 51.8787 134.932 51.8418C136.131 53.7987 136.359 55.6818 135.697 57.7938Z" fill="#11000F"/>
<path d="M127.385 56.8997C127.385 56.8997 128.981 56.9292 129.474 55.4523C129.474 55.4523 129.863 55.083 129.819 55.9101C129.775 56.7372 128.54 59.9421 130.128 62.6376C130.136 62.6302 127.995 62.8591 127.385 56.8997Z" fill="#11000F"/>
<path d="M123.339 58.7609C123.523 59.2114 124.038 59.4994 124.428 59.1006C124.648 58.8717 124.803 58.5098 124.803 58.1923C124.795 57.7197 124.317 57.4686 123.891 57.6459C123.714 57.7197 123.56 57.86 123.457 58.0225C123.332 58.2145 123.258 58.4508 123.31 58.6723C123.317 58.7018 123.324 58.7314 123.339 58.7609Z" fill="#BC473B"/>
<path d="M122.039 66.6108C122.039 66.6108 124.393 66.3301 125.54 65.6064C125.54 65.6064 123.996 67.9695 122.377 68.4717L122.039 66.6108Z" fill="#1E0000"/>
<path d="M94.389 77.2231C94.2419 75.6132 90.4099 78.4194 89.9465 79.9775C89.4758 81.5357 90.7482 81.3067 90.7482 81.3067C88.9977 82.5178 87.2839 76.3443 85.5702 74.7197C83.8564 73.0877 81.7896 70.9757 81.4219 70.4144C81.0541 69.8532 80.2598 67.852 80.2598 66.6926C80.2598 65.5258 80.9585 65.2969 80.9585 65.2969C80.9585 65.2969 81.1644 63.1332 81.7234 61.9443C82.128 61.0729 82.6208 61.0212 82.8561 61.324C82.9444 61.4347 82.9959 61.5972 82.9959 61.7818C82.9959 62.4833 83.3636 65.644 83.7387 66.1757C84.1065 66.7073 87.3501 68.4353 87.5634 68.4353C87.6517 68.4353 87.7841 68.3172 87.9018 68.0957C88.0562 67.8077 88.196 67.3424 88.2107 66.7369C88.2328 65.6661 89.2992 64.2926 89.998 64.0858C90.6967 63.879 90.5276 64.8981 90.3437 65.7843C90.1598 66.6704 90.7114 67.6009 90.6452 68.5092C90.579 69.4175 90.1598 72.6963 90.4099 73.4421C90.6673 74.188 93.3078 75.5837 94.0507 76.2483C94.7862 76.9129 94.389 77.2231 94.389 77.2231Z" fill="#1A4EA2"/>
<path d="M80.9519 65.2969C80.9519 65.2969 80.9519 66.951 81.5771 68.1104C82.2023 69.2772 80.974 69.0778 80.4297 65.8212C80.4297 65.8212 80.6062 65.319 80.9519 65.2969Z" fill="#0F2470"/>
<path d="M83.3199 66.6697C82.2754 65.0672 82.8565 61.3232 82.8565 61.3232C82.9447 61.434 82.9962 61.5965 82.9962 61.7811C82.9962 62.4826 83.364 65.6432 83.7391 66.1749C84.1069 66.7066 87.3505 68.4346 87.5638 68.4346C87.652 68.4346 87.7844 68.3165 87.9021 68.0949C88.0566 70.4728 84.3569 68.2722 83.3199 66.6697Z" fill="#0F2470"/>
<path d="M112.734 91.0904L113.867 90.6252C113.867 90.6252 123.958 87.051 124.429 86.7408C124.9 86.4233 124.745 87.3981 123.62 88.3876C123.62 88.3876 121.288 89.9162 112.072 92.2867L112.734 91.0904Z" fill="#1E0000"/>
<path d="M132.895 91.9992C132.807 95.4773 131.755 100.89 128.688 103.091C125.621 105.291 115.228 106.48 112.683 103.534C110.189 100.639 111.859 96.9764 111.918 96.8435C111.697 97.9438 111.587 98.9924 111.697 99.7973C112.109 102.722 113.308 104.679 117.383 104.413C121.458 104.147 127.849 102.987 129.607 101.223C131.365 99.4576 132.858 91.0835 131.74 84.2896C130.615 77.4958 126.143 73.2718 121.127 73.8478C121.208 73.8108 124.098 72.5333 128.202 75.8121C132.365 79.1425 132.976 88.521 132.895 91.9992Z" fill="#0F2470"/>
<path d="M130.113 116.649C128.238 119.271 126.061 121.774 124.928 122.505C122.949 123.783 104.664 124.942 102.083 125.024C100.656 125.068 95.2572 124.536 90.7264 124.049C87.1444 123.665 84.1067 123.31 84.0185 123.296C84.0258 123.296 84.0332 123.31 84.0553 123.347C84.5775 124.233 90.6528 136.979 91.0868 140.642C91.0868 140.642 88.2109 144.246 84.8423 144.319C84.8423 144.319 84.1435 143.625 83.0402 142.488C83.0402 142.488 85.0482 142.178 86.3059 139.778C87.5416 137.422 82.2312 120.896 80.7307 118.732C80.7087 118.695 80.6792 118.665 80.6572 118.636C80.6498 118.628 80.6498 118.628 80.6498 118.628C80.6204 118.592 80.5983 118.562 80.5983 118.525C80.5763 118.333 81.0985 118.274 82.0473 118.311C87.4239 118.547 106.305 121.988 113.417 121.464C121.956 120.836 130.113 116.649 130.113 116.649Z" fill="#0F2470"/>
<path d="M84.0644 123.34C84.0496 123.325 84.0422 123.31 84.0273 123.288C84.0273 123.295 84.0422 123.31 84.0644 123.34Z" stroke="black" stroke-width="0.8543" stroke-miterlimit="10"/>
<path d="M90.7275 124.041C87.1455 123.657 84.1078 123.302 84.0196 123.287C83.1296 121.914 81.1437 119.285 80.7245 118.724C80.6877 118.672 80.6656 118.642 80.6509 118.628C80.6435 118.62 80.6435 118.62 80.6435 118.62C80.6215 118.583 80.6068 118.554 80.5921 118.517C80.136 117.594 80.8127 117.69 82.041 118.303C84.3579 119.477 88.6239 122.505 90.7275 124.041Z" fill="#1E0000"/>
<path d="M126.974 73.4863C126.974 73.4863 130.806 73.1688 131.512 71.2119C131.512 71.2119 130.754 72.9842 126.68 73.3534L126.974 73.4863Z" fill="#1E0000"/>
<path d="M121.118 73.8477C121.118 73.8477 109.541 78.8766 109.644 81.055C109.644 81.055 108.813 78.4113 106.305 79.8957C106.496 79.5338 106.834 79.1203 107.415 78.98C108.526 78.7141 111.461 77.8206 113.417 76.927C114.984 76.2107 118.161 74.468 121.118 73.8477Z" fill="#FFDCB3"/>
<path d="M110.285 81.9639C110.285 81.9639 112.455 87.3177 110.763 90.3822" stroke="#FFFEFD" stroke-width="2.563" stroke-miterlimit="10" stroke-linecap="round"/>
<path d="M115.242 53.5106C115.691 53.3629 116.198 53.3851 116.618 53.5992C117.037 53.8134 117.353 54.2121 117.419 54.6699" stroke="#12133F" stroke-width="2.1148" stroke-miterlimit="10" stroke-linecap="round"/>
<path d="M106.084 80.494C106.158 80.1986 106.275 79.9106 106.437 79.6447C106.518 79.5118 106.614 79.3863 106.724 79.2829C106.834 79.1721 106.967 79.0835 107.121 79.0318C107.415 78.9358 107.695 78.8324 107.982 78.7217L108.835 78.3968C109.975 77.9611 111.115 77.5254 112.255 77.0823L115.675 75.7678L117.382 75.1032C117.948 74.8817 118.522 74.6601 119.081 74.4238C117.977 74.9481 116.845 75.406 115.712 75.8638C114.579 76.3291 113.439 76.7648 112.306 77.2152C111.166 77.6509 110.026 78.0866 108.879 78.5075L108.018 78.8177C107.732 78.9211 107.437 79.0171 107.15 79.1057C106.871 79.2017 106.643 79.4232 106.481 79.6743C106.305 79.918 106.18 80.1986 106.084 80.494Z" fill="#1E0000"/>
<path d="M87.3731 52.5879C87.3731 52.6544 87.3657 52.7208 87.329 52.7725C87.2848 52.839 87.1966 52.8759 87.1156 52.9128C86.5199 53.1418 85.8653 53.1861 85.2033 53.1639C85.4607 53.2747 85.7034 53.4076 85.9388 53.5553C86.13 53.6734 86.3213 53.8137 86.4243 54.0279C86.5125 54.2199 86.5199 54.4414 86.5199 54.6482C86.5199 54.6999 86.5199 54.7516 86.4978 54.8033C86.4904 54.8181 86.4905 54.8254 86.4831 54.8402C86.4463 54.9067 86.3801 54.9436 86.3139 54.9805C85.9829 55.143 85.6299 55.2168 85.2695 55.2316C85.4239 55.335 85.571 55.4531 85.7108 55.5861C85.8505 55.7116 85.9829 55.8593 86.0565 56.0808C86.1227 56.2802 86.13 56.5091 86.1227 56.7307C86.1227 56.7971 86.1227 56.871 86.1006 56.9227C86.0786 56.9965 86.0271 57.0334 85.9829 57.0704C85.4901 57.4248 84.9238 57.3657 84.3868 57.255C84.1735 57.2107 83.9529 57.159 83.7543 57.0039C83.5631 56.8488 83.3939 56.5608 83.3645 56.2137C83.3277 55.7854 83.5116 55.3793 83.7322 55.1356C83.7469 55.1208 83.7543 55.1134 83.769 55.0987C83.5778 55.0617 83.3939 55.0027 83.2174 54.9067C82.9599 54.759 82.7319 54.5005 82.6804 54.1904C82.6804 54.1756 82.6731 54.1682 82.6731 54.1534C82.6216 53.7473 82.879 53.3559 83.1879 53.127C83.2762 53.0605 83.3645 53.0088 83.4601 52.9571C83.3424 52.9276 83.2321 52.8907 83.1217 52.8464C82.8128 52.7134 82.5407 52.4771 82.4524 52.1965C82.4377 52.1596 82.4304 52.1301 82.4304 52.0931C82.3642 51.687 82.6951 51.2956 83.0923 51.0667C83.2468 50.9781 83.4159 50.8968 83.5998 50.8378C83.4012 50.8008 83.2027 50.7491 83.0261 50.6531C82.8202 50.5498 82.6289 50.3799 82.526 50.1731C82.4818 50.0845 82.4524 49.9959 82.4377 49.8999C82.3862 49.4938 82.6584 49.1024 82.9967 48.8735C83.2174 48.7184 83.4748 48.6076 83.7322 48.5559C83.9676 48.5116 84.2103 48.6002 84.4457 48.6593C84.9826 48.7996 85.5048 49.0138 85.9829 49.2944C86.1889 49.4125 86.4022 49.5528 86.5125 49.767C86.6081 49.959 86.6228 50.1805 86.6155 50.3873C86.6155 50.4538 86.6081 50.5202 86.5787 50.5719C86.5787 50.5793 86.5714 50.5793 86.5714 50.5867C86.5346 50.6458 86.461 50.6827 86.4022 50.7122C86.0418 50.8747 85.6593 50.9485 85.2695 50.9633C85.7402 51.0962 86.1962 51.2661 86.6228 51.4802C86.8656 51.5984 87.1157 51.7387 87.248 51.9528C87.3731 52.1522 87.3804 52.3738 87.3731 52.5879Z" fill="#1A4EA2"/>
<path d="M86.579 50.5938C86.5422 50.6529 86.4687 50.6898 86.4098 50.7193C86.0494 50.8818 85.667 50.9556 85.2771 50.9704L83.6149 50.8375C83.4163 50.8005 83.2177 50.7488 83.0412 50.6528C82.8352 50.5495 82.644 50.3796 82.541 50.1729C83.9826 50.5125 85.9979 50.4535 86.579 50.5938Z" fill="#0F2470"/>
<path d="M87.3364 52.7718C87.2923 52.8382 87.204 52.8752 87.1231 52.9121C86.5273 53.141 85.8727 53.1853 85.2108 53.1632L83.4823 52.9638C83.3646 52.9342 83.2543 52.8973 83.1439 52.853C82.835 52.7201 82.5629 52.4838 82.4746 52.2032C82.4673 52.1958 85.7403 53.2444 87.3364 52.7718Z" fill="#0F2470"/>
<path d="M86.5053 54.8028C86.4979 54.8176 86.498 54.825 86.4906 54.8397C86.4538 54.9062 86.3876 54.9431 86.3214 54.98C85.9904 55.1425 85.6374 55.2163 85.277 55.2311L83.7839 55.1056C83.5926 55.0687 83.4088 55.0096 83.2322 54.9136C82.9748 54.7659 82.7468 54.5074 82.6953 54.1973C83.3573 54.4114 85.0784 55.017 86.5053 54.8028Z" fill="#0F2470"/>
<path d="M106.084 103.431C106.084 103.431 98.3757 108.762 104.069 111.539C104.069 111.539 101.921 108.437 106.084 103.431Z" fill="#0F2470"/>
<path d="M104.893 103.431C104.893 103.431 104.76 103.534 104.547 103.719" stroke="#FFFEFD" stroke-width="1.7086" stroke-miterlimit="10" stroke-linecap="round"/>
<path d="M103.863 104.354C102.223 105.986 99.5309 109.427 102.951 111.923" stroke="#FFFEFD" stroke-width="1.7086" stroke-miterlimit="10" stroke-linecap="round" stroke-dasharray="10.78 10.78"/>
<path d="M103.34 112.188C103.465 112.262 103.59 112.343 103.722 112.417" stroke="#FFFEFD" stroke-width="1.7086" stroke-miterlimit="10" stroke-linecap="round"/>
<path d="M150.011 182.002L135.036 124.388H102.489L91.7871 182.002H95.016L96.9872 172.72H142.074H144.038L146.796 182.002H150.011ZM139.736 154.428H137.654H100.047L102.254 141.284H134.874H136.654L139.736 154.428ZM133.469 127.718L135.874 137.961H134.19H102.805L104.519 127.718H133.469ZM141.155 169.39H97.5315L99.4806 157.751H138.382H140.508L143.237 169.39H141.155Z" fill="#F9A12D"/>
<path d="M130.114 137.953H92.5V141.284H130.114V137.953Z" fill="#FEBD57"/>
<path d="M134.467 154.429H89.1816V157.759H134.467V154.429Z" fill="#FEBD57"/>
<path d="M137.587 169.39H87.4102V172.72H137.587V169.39Z" fill="#FEBD57"/>
<path d="M126.855 137.953H130.114V141.284H127.554C127.297 140.05 127.061 138.928 126.855 137.953Z" fill="#FF8C3E"/>
<path d="M134.475 157.751H131.202C130.945 156.644 130.695 155.529 130.438 154.421H134.475V157.751Z" fill="#FF8C3E"/>
<path d="M137.588 169.39V172.72H135.006C134.712 171.731 134.395 170.608 134.064 169.39H137.588Z" fill="#FF8C3E"/>
<path d="M87.4102 169.39H90.7715C90.4993 170.689 90.2419 171.819 90.0139 172.72H87.4102V169.39Z" fill="#FF8C3E"/>
<path d="M89.1816 154.429H93.5947C93.3961 155.544 93.1975 156.659 93.0063 157.759H89.189V154.429H89.1816Z" fill="#FF8C3E"/>
<path d="M96.3835 137.953C96.2217 138.928 96.0378 140.05 95.8319 141.284H92.5V137.953H96.3835Z" fill="#FF8C3E"/>
<path d="M127.724 124.388H94.0296L82.9453 184.462H86.2846L96.1405 127.718H126.105L139.889 184.462H143.228L127.724 124.388Z" fill="#FEBD57"/>
</g>
</svg>
