<svg width="266" height="65" viewBox="0 0 266 65" fill="none" xmlns="http://www.w3.org/2000/svg">
<circle cx="32.6309" cy="32.5" r="30.5" fill="#C4C4C4" stroke="white" stroke-width="4"/>
<circle cx="82.6309" cy="32.5" r="30.5" fill="#C4C4C4" stroke="white" stroke-width="4"/>
<circle cx="132.631" cy="32.5" r="30.5" fill="#C4C4C4" stroke="white" stroke-width="4"/>
<circle cx="182.631" cy="32.5" r="30.5" fill="#C4C4C4" stroke="white" stroke-width="4"/>
<circle cx="232.631" cy="32.5" r="30.5" fill="#834B96" stroke="white" stroke-width="4"/>
<path d="M216.683 36.472C217.707 35.6187 218.523 34.9093 219.131 34.344C219.739 33.768 220.246 33.1707 220.651 32.552C221.056 31.9333 221.259 31.3253 221.259 30.728C221.259 30.184 221.131 29.7573 220.875 29.448C220.619 29.1387 220.224 28.984 219.691 28.984C219.158 28.984 218.747 29.1653 218.459 29.528C218.171 29.88 218.022 30.3653 218.011 30.984H215.835C215.878 29.704 216.256 28.7333 216.971 28.072C217.696 27.4107 218.614 27.08 219.723 27.08C220.939 27.08 221.872 27.4053 222.523 28.056C223.174 28.696 223.499 29.544 223.499 30.6C223.499 31.432 223.275 32.2267 222.827 32.984C222.379 33.7413 221.867 34.4027 221.291 34.968C220.715 35.5227 219.963 36.1947 219.035 36.984H223.755V38.84H215.851V37.176L216.683 36.472ZM224.894 29.4V27.336H228.75V39H226.446V29.4H224.894ZM236.467 39L233.459 35.224V39H231.219V27.16H233.459V33.896L236.435 30.136H239.347L235.443 34.584L239.379 39H236.467ZM248.931 34.28H245.907V37.384H243.795V34.28H240.771V32.328H243.795V29.224H245.907V32.328H248.931V34.28Z" fill="white"/>
</svg>
